<?xml version="1.0" encoding="utf-8"?>
<svg version="1.1" xmlns="http://www.w3.org/2000/svg" xmlns:xlink="http://www.w3.org/1999/xlink" width="512px" height="512px">
	<g fill="#fff">
		<path d="M391.93,144.23c-5.399,2.467-10.434,4.77-15.476,7.06c-0.462,0.21-0.954,0.38-1.451,0.483 c-1.109,0.232-1.865-0.242-2.083-1.338c-0.165-0.83-0.2-1.694-0.208-2.544c-0.024-2.647,0.017-5.296-0.016-7.942 c-0.096-7.826-4.505-14.16-11.953-16.76c-2.467-0.86-5.13-1.221-7.734-1.6c-1.676-0.244-3.408-0.132-5.115-0.133 c-61.038-0.004-196.6-0.045-203.339,0.078c-2.369,0.041-4.755,0.389-7.09,0.826c-3.29,0.617-6.041,2.359-8.295,4.787 c-3.791,4.084-5.998,8.83-5.991,14.533c0.029,25.369-0.025,173.82-0.013,222.679c0,3.404-0.154,6.887,0.475,10.197 c1.756,9.244,7.791,14.616,17.101,15.649c2.454,0.272,4.936,0.405,7.404,0.405c65.222,0.021,204.4,0.072,208.69-0.482 c10.804-1.396,16.442-10.836,15.938-18.58c-0.18-2.721-0.095-5.465-0.03-8.195c0.063-2.821,0.753-3.277,3.229-2.178 c3.82,1.697,7.62,3.438,11.409,5.205c1,0.467,1.946,1.061,2.875,1.664c1.231,0.803,1.713,1.938,1.785,3.453 c0.762,16.093-10.527,30.469-24.072,35.625c-5.654,2.152-11.369,3.217-17.468,3.202c-48.146-0.114-185.25,0.082-205.65,0.001 c-8.969-0.035-17.367-2.2-24.789-7.596c-5.179-3.765-8.879-8.662-11.835-14.231c-1.937-3.651-3.19-7.56-3.847-11.595 c-0.475-2.924-0.484-5.942-0.487-8.92c-0.027-43.902,0.001-192.699-0.039-223.189c-0.007-5.137,0.085-10.199,1.838-15.141 c4.859-13.699,13.78-22.936,28.265-26.201c0.416-0.094,0.859-0.137,1.239-0.312c3.719-1.706,7.673-1.331,11.581-1.332 c41.233-0.006,173.55-0.023,198.48-0.144c6.256-0.03,12.416,0.156,18.512,1.838c10.247,2.826,17.913,8.984,23.441,17.87 c1.638,2.633,2.651,5.616,3.651,8.634c1.581,4.775,0.587,9.473,1.077,14.225L391.93,144.23z" />
		<path d="M311.83,278.85c0.129-1.465,0.297-2.641,0.323-3.818c0.048-2.221,0.028-4.441,0.011-6.662 c-0.023-2.993,0.142-5.928,0.924-8.872c0.853-3.197,1.147-6.539,1.844-9.783c0.695-3.23,1.304-6.525,2.453-9.603 c2.147-5.743,4.208-11.549,7.573-16.763c1.287-1.992,2.264-4.187,3.511-6.207c4.369-7.08,9.68-13.425,15.344-19.486 c0.66-0.706,1.266-1.461,2.26-2.615c-1.364-0.104-2.09-0.205-2.816-0.206c-13.146-0.007-26.293,0-39.439-0.001 c-0.938,0-1.885,0.031-2.814-0.064c-2.481-0.256-4.264-2.211-4.271-4.611c-0.006-2.371,1.803-4.221,4.368-4.412 c0.936-0.07,1.877-0.051,2.816-0.051c16.562-0.002,33.124-0.031,49.686,0.03c2.424,0.009,4.406-0.542,6.333-2.12 c2.163-1.773,4.614-3.224,7.047-4.631c3.617-2.096,7.25-4.194,11.021-5.985c3.529-1.676,7.233-2.993,10.889-4.391 c1.979-0.756,3.996-1.431,6.035-1.999c3.358-0.937,6.712-1.954,10.135-2.572c3.854-0.695,7.781-0.998,11.679-1.447 c1.356-0.156,2.72-0.281,4.082-0.355c3.668-0.199,7.293-0.191,10.939,0.639c3.646,0.831,7.435,1.029,11.094,1.809 c2.89,0.615,5.73,1.554,8.493,2.608c2.264,0.862,3.3,3.277,2.644,5.483c-0.473,1.582-1.381,2.675-3.217,2.82 c-1.987,0.159-3.813-0.057-5.731-0.797c-2.195-0.847-4.589-1.254-6.935-1.617c-4.378-0.676-8.771-1.273-13.178-1.73 c-3.235-0.336-6.477-0.108-9.666,0.645c-0.823,0.194-1.692,0.301-2.537,0.277c-4.229-0.114-8.316,0.996-12.287,2.046 c-12.027,3.177-23.091,8.569-33.381,15.606c-14.296,9.777-25.396,22.441-34.107,37.303c-0.861,1.469-1.658,2.996-2.282,4.576 c-2.099,5.311-4.389,10.57-6.056,16.017c-1.289,4.207-1.903,8.646-2.541,13.021c-0.555,3.793-0.778,7.637-1.029,11.467 c-0.083,1.262,0.12,2.563,0.348,3.814c0.308,1.691,1.039,2.398,2.722,2.555c1.44,0.135,2.905,0.142,4.349,0.041 c1.431-0.101,2.353-1.256,2.075-2.641c-1.163-5.839-0.189-11.575,0.86-17.279c0.612-3.342,1.645-6.604,2.463-9.91 c2.371-9.553,7.037-18.082,12.4-26.152c4.732-7.12,10.751-13.268,17.246-18.852c6.955-5.979,14.684-10.767,22.896-14.89 c6.869-3.449,14.133-5.579,21.527-7.167c7.778-1.671,15.694-1.761,23.674-0.786c10.686,1.304,20.279,5.188,29.073,11.188 c2.448,1.67,4.681,3.725,6.771,5.841c5.766,5.833,10.305,12.587,13.237,20.218c1.572,4.095,2.183,8.572,3.099,12.904 c1.804,8.525,0.863,16.942-0.858,25.39c-1.389,6.817-4.143,13.046-6.885,19.368c-4.429,10.215-10.938,18.932-18.705,26.669 c-8.005,7.978-16.937,14.769-27.325,19.597c-5.433,2.521-10.926,4.818-16.63,6.504c-3.804,1.125-7.844,1.475-11.79,2.098 c-2.104,0.333-4.226,0.656-6.348,0.734c-6.161,0.229-12.272-0.201-18.269-1.791c-1.885-0.5-3.817-0.824-5.703-1.328 c-4.83-1.295-9.097-3.859-13.436-6.211c-5.25-2.846-9.391-7.054-13.337-11.463c-5.38-6.017-9.139-12.914-11.438-20.634 c-0.19-0.645-0.431-1.274-0.688-2.03h-8.276c-0.354,1.916-0.332,3.703,0.771,5.387c0.274,0.42,0.458,0.917,0.609,1.4 c5.175,16.379,15.753,28.188,30.515,36.623c6.239,3.566,13.022,5.491,19.806,7.484c1.769,0.518,3.715,0.411,5.575,0.624 c4.653,0.534,9.268,1.669,13.996,1.131c2.532-0.289,5.03-0.909,7.564-1.153c11.271-1.094,21.775-4.668,31.817-9.729 c17.772-8.96,31.912-21.985,42.981-38.47c6.298-9.377,10.839-19.526,13.48-30.485c2.463-10.211,3.204-20.603,1.739-31.02 c-0.585-4.162-1.579-8.291-3.241-12.283c-1.104-2.658-2.225-5.318-3.354-7.975c-1.996-4.69-4.783-8.844-7.882-12.834 c-1.357-1.748-1.403-3.416-0.263-5.194c1.058-1.651,3.02-2.579,4.866-1.954c1.071,0.361,2.198,1.074,2.892,1.952 c3.708,4.696,7.152,9.576,9.354,15.211c1.118,2.861,2.457,5.655,3.329,8.589c1.065,3.582,1.76,7.275,2.587,10.927 c0.188,0.827,0.103,1.745,0.411,2.514c1.05,2.617,0.964,5.345,0.973,8.068c0.012,3.331,0.109,6.667-0.037,9.993 c-0.09,2.024-0.562,4.034-0.877,6.048c-0.133,0.839-0.317,1.668-0.458,2.505c-0.28,1.677-0.534,3.356-0.825,5.031 c-0.246,1.424-0.462,2.86-0.813,4.26c-0.493,1.958-0.936,3.955-1.688,5.817c-1.981,4.895-3.965,9.8-6.229,14.565 c-6.24,13.126-15.029,24.363-25.681,34.203c-7.957,7.354-17.018,13.052-26.415,18.356c-7.229,4.08-15.028,6.477-22.878,8.748 c-4.401,1.272-9.026,1.783-13.563,2.58c-6.186,1.088-12.496,1.138-18.624,0.383c-6.777-0.838-13.713-1.469-20.104-4.426 c-2.535-1.175-5.408-1.639-7.899-2.883c-3.808-1.898-7.508-4.049-11.084-6.354c-7.854-5.059-14.336-11.623-19.614-19.271 c-2.693-3.902-5.021-8.064-6.855-12.541c-1.627-3.969-3.017-7.951-4.028-12.099c-0.22-0.905-0.677-1.751-0.939-2.647 c-0.347-1.187-1.094-1.539-2.291-1.525c-4.693,0.052-9.39,0.074-14.083-0.016c-1.33-0.024-2.744-0.246-3.96-0.758 c-2.106-0.887-2.752-2.5-2.313-4.847c0.366-1.954,1.802-3.208,3.991-3.237c4.523-0.063,9.05-0.027,13.573-0.033 C309.771,278.85,310.619,278.85,311.83,278.85L311.83,278.85z M474.33,250.779c0.546-3.938,1.809-7.623,1.35-11.521 c-0.396-3.384-0.822-6.765-1.26-10.144c-0.063-0.504-0.223-1.002-0.377-1.488c-0.564-1.781-1.104-3.571-1.732-5.329 c-0.543-1.521-1.047-3.085-1.827-4.485c-1.495-2.68-3.064-5.333-4.801-7.863c-5.236-7.631-12.473-12.785-20.951-16.182 c-3.452-1.383-7.109-2.289-10.723-3.227c-2.568-0.666-5.201-0.33-7.682-0.135c-0.55,2.041-0.899,3.806-1.512,5.475 c-0.57,1.555-2.938,2.809-4.355,2.553c-2.284-0.41-3.285-1.385-3.49-3.674c-0.126-1.406-0.022-2.834-0.022-4.462 c-1.521,0-2.746-0.215-3.867,0.037c-5.149,1.155-10.471,1.921-15.359,3.796c-9.005,3.453-17.454,7.965-25.11,14.083 c-11.643,9.3-20.73,20.429-26.811,34.019c-0.87,1.945-1.678,3.922-2.418,5.92c-0.282,0.762-0.294,1.623-0.445,2.527 c0.894,0.348,1.593,0.638,2.305,0.891c0.724,0.258,1.476,0.438,2.186,0.724c2.043,0.821,3.003,3.55,2.015,5.456 c-1.281,2.468-3.588,2.938-6.012,3.188c-0.985,0.103-1.981,0.113-3.101,0.174c-0.371,6.063-1.868,11.873,0.426,17.779 c1.235,0,2.335,0,3.434,0c5.635,0.006,11.268,0.021,16.899,0.006c1.534-0.006,2.847,0.291,3.729,1.729 c1.406,2.301,0.741,5.12-1.742,6.305c-1.03,0.492-2.292,0.67-3.453,0.688c-5.035,0.083-10.071,0.034-15.107,0.091 c-0.841,0.009-1.679,0.297-2.561,0.464c8.535,25.397,32.996,35.585,49.646,33.563c0.227-0.664,0.477-1.383,0.717-2.104 c0.27-0.809,0.51-1.63,0.8-2.431c0.903-2.489,2.854-3.729,5.063-3.242c2.651,0.585,4.056,2.699,3.677,5.53 c-0.075,0.568-0.13,1.141-0.233,2.064c0.994,0,1.824,0.118,2.609-0.019c6.933-1.203,13.607-3.398,19.93-6.358 c10.11-4.73,19.234-11,27.04-19.103c5.533-5.745,10.563-11.859,14.277-18.945c1.862-3.549,3.439-7.245,5.142-10.878 c0.289-0.618,0.606-1.23,0.813-1.878c0.721-2.265,0.301-3.081-1.929-3.858c-0.645-0.225-1.311-0.385-1.954-0.607 c-1.254-0.436-2.707-2.694-2.599-4.005c0.141-1.699,1.569-3.478,3.1-3.809C470.117,251.647,472.193,251.226,474.33,250.779 L474.33,250.779z" />
		<path d="M152.9,150.39c-0.598,25.467-0.703,50.48-0.443,75.498c0.002,0.276,0.294,0.551,0.563,1.021 c0.638-0.67,1.171-1.189,1.658-1.748c9.022-10.373,18.039-20.753,27.063-31.125c0.784-0.9,1.568-1.812,2.434-2.631 c3.458-3.273,8.06-3.584,11.914-0.748c1.088,0.801,2.063,1.793,2.959,2.813c5.294,6.034,55.913,63.512,60.097,67.893 c2.295,2.402,3.406,4.962,3.033,8.273c-0.227,2.03-0.135,4.096-0.238,6.141c-0.035,0.707-0.229,1.404-0.445,2.666 c-1.057-1.053-1.73-1.658-2.332-2.332c-6.368-7.133-60.189-68.152-65.447-74.1c-0.999-1.131-2.107-2.164-3.281-3.359 c-0.731,0.807-1.303,1.417-1.853,2.046c-6.793,7.784-13.59,15.563-20.371,23.357c-4.763,5.476-9.492,10.981-14.257,16.456 c-1.003,1.152-1.53,2.439-1.501,3.965c0.012,0.598-0.022,1.195-0.022,1.794c-0.001,24.171-0.005,48.346,0.008,72.52 c0.001,1.423,0.138,2.847,0.224,4.517h109.08c0,2.801,0.063,5.346-0.053,7.881c-0.022,0.521-0.611,1.271-1.109,1.461 c-0.93,0.353-1.985,0.509-2.988,0.509c-34.66,0.011-69.32,0.007-103.98-0.034c-7.356-0.01-11.537-4.469-11.305-11.841 c0.046-1.451,0.083-2.902,0.084-4.354c0.004-33.738-0.068-143.07-0.082-164c-0.001-1.359,0.064-2.741,0.309-4.074 c0.801-4.357,3.909-7.283,8.292-7.809c1.941-0.232,3.906-0.379,5.861-0.379c47.807-0.021,169.37,0.011,182.35,0.123 c2.717,0.023,5.448,0.367,8.14,0.777c3.156,0.482,6.237,3.912,6.389,7.16c0.152,3.317,0.033,6.648,0.033,9.928 c-2.646,1.974-5.609,2.686-8.746,3.686c-1.02-3.889-0.057-7.688-0.739-11.633c-1.653-0.108-3.243-0.303-4.832-0.305 c-28.087-0.019-149.99-0.014-182.86-0.014c-1.093-0.001-2.183-0.001-3.598-0.001L152.9,150.39z" />
		<path d="M52.489,278.93c12.72,0,25.439-0.004,38.159,0.008c0.934,0.002,1.897-0.017,2.796,0.191 c1.937,0.45,3.235,2.191,3.05,3.877c-0.21,1.915-1.461,3.098-3.59,3.303c-1.017,0.099-2.045,0.11-3.068,0.11 c-24.671,0.006-49.341,0.008-74.012-0.005c-1.104,0-2.231-0.023-3.308-0.234c-2.08-0.41-3.3-1.924-3.173-3.718 c0.138-1.948,1.621-3.369,3.709-3.509c0.765-0.053,1.535-0.023,2.304-0.023C27.733,278.93,40.111,278.93,52.489,278.93z" />
		<path d="M28.562,191.83c-0.936-0.002-1.893,0.029-2.802-0.148c-1.947-0.379-3.239-2.045-3.092-3.806 c0.157-1.893,1.472-3.229,3.458-3.466c0.675-0.08,1.361-0.086,2.042-0.086c20.809-0.006,41.617-0.008,62.426,0.006 c1.017,0.001,2.066,0.029,3.044,0.271c1.833,0.453,3.114,2.355,2.845,4.022c-0.229,1.413-1.643,3.243-3.705,3.228 C82.375,191.766,38.966,191.839,28.562,191.83L28.562,191.83z" />
		<path d="M275.141,233.43c-1.459,0.003-2.637-0.435-3.472-1.735c-1.742-2.718-0.208-6.253,3.185-7.12 c0.814-0.208,1.688-0.254,2.535-0.256c8.952-0.018,17.904,0.008,26.856-0.025c2.071-0.007,3.83,0.559,5.31,2.058 c1.235,1.251,1.469,2.673,0.88,4.229c-0.573,1.513-1.533,2.67-3.324,2.766c-1.276,0.068-2.554,0.168-3.83,0.176 C299.016,233.543,280.256,233.418,275.141,233.43z" />
		<path d="M91.894,224.13c1.376-0.014,2.458,0.387,3.439,1.341c1.032,1.002,1.347,2.175,0.998,3.492 c-0.379,1.425-1.362,2.354-2.818,2.657c-0.658,0.137-1.356,0.11-2.035,0.111c-9.795,0.006-19.59,0.02-29.384-0.02 c-1.082-0.004-2.229-0.15-3.229-0.533c-1.673-0.642-2.453-2.056-2.284-3.593c0.171-1.568,1.216-2.792,2.887-3.178 c0.817-0.188,1.686-0.198,2.532-0.201C66.855,224.19,86.785,224.183,91.894,224.13z" />
		<path d="M310.4,319.939c1.633-0.008,2.999,0.451,3.933,1.906c1.895,2.948,0.359,6.393-3.245,7.188 c-0.492,0.109-1.016,0.117-1.524,0.117c-7.072,0-14.146-0.039-21.221,0.002c-2.163,0.013-3.795-0.846-4.979-2.577 c-1.715-2.503-0.652-5.461,2.277-6.244c1.055-0.281,2.186-0.368,3.284-0.383C292.418,319.902,306.735,319.955,310.4,319.939 L310.4,319.939z" />
		<path d="M85.471,321.859c2.379,0,4.758-0.002,7.137,0c0.254,0,0.511,0.002,0.764,0.031 c1.761,0.213,3.081,1.403,3.13,2.815c0.047,1.351-1.268,2.676-3.013,2.946c-0.666,0.104-1.355,0.074-2.034,0.074 c-4.08,0.006-8.159,0.004-12.238,0.004c-0.425,0-0.851,0.012-1.275-0.008c-2.168-0.104-3.46-1.162-3.528-2.881 c-0.066-1.684,1.258-2.906,3.413-2.967C80.373,321.809,82.923,321.861,85.471,321.859z" />
		<path d="M275.33,287.67c-2.316-0.016-4.665-2.513-4.602-4.896c0.063-2.399,1.81-4.055,4.312-4.082 c2.622-0.03,4.883,1.983,4.787,4.264C279.723,285.406,277.55,287.686,275.33,287.67z" />
		<path d="M467.91,176.74c2.634,0.051,4.889,2.062,4.713,4.201c-0.163,1.972-2.951,4.658-4.786,4.609 c-1.885-0.05-4.428-2.728-4.422-4.656C463.422,178.621,465.509,176.694,467.91,176.74z" />
		<path d="M389.66,275.92c-1.207-0.663-2.147-1.089-2.989-1.66c-2.403-1.631-2.738-3.863-0.851-6.058 c0.883-1.026,1.925-1.933,2.972-2.798c4.071-3.375,8.146-6.739,12.272-10.044c1.69-1.355,2.521-2.96,2.856-5.157 c0.585-3.851,7.636-34.501,8.322-37.04c0.271-0.996,0.979-2.012,1.767-2.7c1.357-1.187,3.199-1.067,4.733,0.003 c2.137,1.491,2.856,3.211,2.366,5.175c-0.824,3.295-7.375,32.919-8.451,38.603c-0.5,2.645-1.571,4.756-3.692,6.473 c-4.638,3.756-9.132,7.688-13.767,11.446C393.493,273.547,391.557,274.646,389.66,275.92L389.66,275.92z" />
	</g>
</svg>
