<svg version="1" xmlns="http://www.w3.org/2000/svg" width="682.667" height="682.667" viewBox="0 0 512.000000 512.000000"><path d="M0 256v256h512V0H0v256zm362.3-152.5c8.6 2.2 14.7 5.7 20 11.4 6.2 6.6 9.5 13.8 10.3 22.7l.7 7-8.3 3.7c-11.8 5.4-12 5.3-12-3.8 0-4.2-.6-9-1.4-10.8-2.1-5-7.7-9.4-13.8-10.6-3.8-.8-37-1.1-112.8-.9-106.3.3-107.5.3-111 2.3-1.9 1.2-4.8 4-6.5 6.4l-3 4.3-.3 119.6c-.2 107.4-.1 120.1 1.3 123.9 1.8 4.7 7.1 9.9 11.3 11 1.5.5 52.2.8 112.7.8h110l4.4-2.5c6.4-3.6 9.1-9.1 9.1-18.7 0-5.2.4-7.5 1.3-7.9 2-.7 16.6 6.6 17.9 8.9 1.4 2.8.1 11.4-2.7 17.5-3 6.5-11 15.1-16.8 18-10.8 5.4-7.3 5.3-127.3 5-108.5-.3-111-.3-115.6-2.3-10.8-4.6-18.5-12.5-23-23.5l-2.3-5.5-.3-120.4c-.3-133.4-.6-127.1 6.2-138.1 5-8.1 11.3-13 20.9-16.2l8.2-2.7H248c93.2-.1 109.4.1 114.3 1.4zm-10.9 40.4c2.3 2.2 2.6 3.2 2.6 9.2v6.7l-4 1.6c-2.2.9-4.2 1.6-4.5 1.6-.2 0-.5-2.6-.7-5.8l-.3-5.7-95.2-.3-95.1-.2-.7 6.2c-.3 3.5-.5 20.7-.3 38.2l.3 31.9 15.8-18.1c8.7-10 16.6-18.6 17.7-19.2 3-1.6 6.5-1.2 9.4 1.1 2.8 2.2 60.6 67.1 64.4 72.2 2.2 3.2 3.1 11.7 1.4 14.4-.5.8-12.7-12.3-35.6-38.2-19.2-21.7-35.2-39.5-35.6-39.5-.7 0-7 7.1-27.8 31.3L153 243v81h54.4c51 0 54.5.1 55 1.7.3 1 .2 3.1-.2 4.8l-.8 3-54 .3c-36.6.2-55.1-.1-57.6-.8-7.2-2.1-6.8 3.3-6.8-96 0-59 .3-89.8 1-91 2.7-5.1-.9-5 105.7-4.7l99.1.2 2.6 2.4zm82.6 19.5c16.8 2.8 21.7 4.9 20.8 9.2-.7 3.5-3.1 3.8-13.4 1.8-13.1-2.5-28.9-2.3-39.9.5-24.1 6.3-48.6 24-63.1 45.6-10.2 15.3-17 37.3-16.2 52.4l.3 5.6h7.8l.2-8c.6-18.8 8.8-39.3 22.1-55 12.3-14.5 34.6-28.3 52.4-32.5 27.7-6.5 55.8 3 69.9 23.9 4.9 7.2 6.8 11.7 8.7 20.6 3.2 15 1.3 30-5.7 46.2-5.6 12.8-10.7 20.2-20.5 29.9-10.2 10.2-21 17.3-33.9 22.4-21.7 8.4-43.5 8.1-61.6-1-11.4-5.8-23.6-19.6-27.4-31.1-1.6-4.8-1.8-4.9-5.6-4.9-4.9 0-5 1.4-.9 11.3 9.4 22.6 31.8 38 58.2 40.2 44.8 3.7 92.8-31.7 104.9-77.4 2.6-10 3.4-23.7 2-33-1.3-8.4-6.4-20.9-11.6-28.8-3.8-5.7-4.3-8.4-2.1-10.3 5.5-4.5 15.6 9.6 21.2 29.6 2.4 8.7 2.9 27.1 1 37.7-1.6 9.2-6.8 23.6-11.9 32.7-13.5 24.4-39.9 46-66.6 54.4-14.3 4.5-26.7 6-38.7 4.7-20.2-2.3-36.5-9.9-49.9-23.5-8.7-8.8-14.9-19.1-18-30.1-1-3.3-2.1-6.4-2.5-6.8-.4-.5-4.8-1-9.6-1.2-10.8-.3-12.4-.9-12.4-4.4 0-4.4 1.6-5.1 11.2-5.1h8.8v-5.3c0-6.8 3.5-26.2 6.1-34.1 4.1-12.4 13.8-28.1 23.7-38.9l4.5-4.7h-21.9c-23.2 0-26.6-.6-27.2-4.7-.2-1.1.4-2.8 1.3-3.7 1.4-1.4 5.2-1.6 30.2-1.6h28.5l6.9-4.5c12.4-8.3 30.3-15.4 44-17.4 15.6-2.3 15.8-2.3 25.9-.7zm37.5 14.9c1.3 1 1.6 2.1 1.1 4-1.2 5.1-8.6 4.4-8.6-.7 0-4.2 3.9-5.9 7.5-3.3zm-375.7 7.9c1.8 1.8 1.4 4.6-.7 5.8-2.6 1.3-66 1.4-69.5 0-2.8-1-3.4-3.8-1.4-5.8 1.7-1.7 69.9-1.7 71.6 0zM94.5 225c2.1.8 2.6 1.6 2.3 3.8l-.3 2.7-17.5.3c-20.5.3-22 .1-22-3.4 0-1.6.8-2.8 2.3-3.4 3-1.2 31.9-1.2 35.2 0zm215.3 1.2c.7.7 1.2 2.1 1.2 3.3 0 4.2-1.5 4.5-20.2 4.5H273l-1.2-2.5c-.9-2.1-.8-2.8.7-4.5 1.7-1.9 3.1-2 19-2 12 0 17.5.4 18.3 1.2zM95.1 280c2.1 1.2 2.5 4 .7 5.8-1.7 1.7-82.9 1.7-84.6 0-1.5-1.5-1.5-4.1 0-5.6 1.6-1.6 80.9-1.7 83.9-.2zm184.3 1.2c1.3 1.9 1.4 2.5.2 4.3-2.1 3.1-6.8 2.7-8-.7-1.8-5.2 4.6-8.2 7.8-3.6zm34.8 40.5c2.4 2.2 2.3 4.9-.4 6.7-1.7 1.2-5 1.6-14.3 1.6-13.3 0-16.5-1.1-16.5-5.6 0-3.6 2.7-4.3 16.9-4.3 10.2-.1 12.8.2 14.3 1.6zM96 323.5c.7.8 1 2.2.6 3-.5 1.3-2.3 1.5-10.8 1.3-9.1-.3-10.3-.5-10.6-2.2-.6-2.9 1.6-3.6 10.9-3.6 6.5 0 9 .4 9.9 1.5z"/><path d="M405.5 192.7c-7 1.7-20.4 7.8-27.2 12.4-6.9 4.7-17.8 15.4-22.9 22.4-4.3 6.2-11.4 19.9-11.4 22.2 0 .8 1.1 1.8 2.4 2.3 5.9 2.2 4.7 8.3-1.8 9.6-3.2.6-3.4.8-4.1 6-.3 3-.4 6.8 0 8.4l.7 3h11.2c11.8 0 13.6.6 13.6 4.5 0 3.8-1.9 4.5-12.1 4.5-5.4 0-10 .4-10.4 1-.9 1.4 4.8 11.9 9.1 16.9 7.8 9.1 22.7 16.1 33.9 16.1 5.2 0 5.4-.1 7.2-3.8 1-2 2.6-3.8 3.5-4 2.4-.5 6.1 3.6 5.5 5.9-.7 2.8 2.1 2.5 13.3-1.4 22.6-7.8 40.6-23.4 51-44 2.8-5.5 5-10.5 5-11.2 0-.8-1.2-2-2.7-2.7-4.1-2-5.1-4.3-2.9-6.7 1.1-1.2 2.9-2.1 4-2.1 3.5 0 4.6-1.4 5.2-6.6 2-16.8-7.5-37.4-21.6-46.4-6.1-3.9-17.8-8-22.9-8-3.5 0-3.9.3-5.4 4-1.2 3.2-2 4-4.1 4-2.7 0-4.6-2.4-4.6-5.9 0-2.5-2.5-2.6-11.5-.4zm14.9 19.2c1.7 1.9 1.6 2.9-3 23.9-2.6 12-5.2 22.6-5.8 23.4-2.3 3-19.8 16.8-21.3 16.8-2.3 0-5.3-2.9-5.3-5.1 0-1 3.7-4.8 8.8-8.9 4.8-4 9-7.7 9.3-8.3.3-.7 2.5-9.8 4.9-20.2 2.3-10.5 4.8-20 5.6-21.3 1.8-2.7 4.5-2.8 6.8-.3z"/></svg>