<?xml version="1.0" encoding="UTF-8"?>
<svg version="1.1" xmlns="http://www.w3.org/2000/svg" xmlns:xlink="http://www.w3.org/1999/xlink" width="512px" height="512px">
	<rect width="512" height="512" fill="#4FBEEE"/>
	<g fill="#fff">
		<path d="m391.93 144.23c-5.398 2.467-10.434 4.77-15.476 7.06-0.462 0.21-0.954 0.38-1.451 0.483-1.109 0.232-1.865-0.242-2.083-1.338-0.165-0.83-0.2-1.694-0.208-2.544-0.024-2.647 0.017-5.296-0.016-7.942-0.097-7.826-4.505-14.16-11.953-16.76-2.467-0.86-5.13-1.221-7.734-1.6-1.676-0.244-3.408-0.132-5.115-0.133-61.038-4e-3 -196.6-0.045-203.34 0.078-2.369 0.041-4.755 0.389-7.09 0.826-3.29 0.617-6.041 2.359-8.295 4.787-3.791 4.084-5.998 8.83-5.991 14.533 0.029 25.369-0.025 173.82-0.013 222.68 0 3.404-0.154 6.887 0.475 10.197 1.756 9.243 7.791 14.615 17.101 15.648 2.454 0.271 4.936 0.404 7.404 0.404 65.222 0.021 204.4 0.072 208.69-0.481 10.804-1.396 16.442-10.836 15.938-18.58-0.181-2.721-0.096-5.465-0.03-8.194 0.063-2.821 0.753-3.277 3.229-2.179 3.82 1.697 7.62 3.438 11.409 5.205 1 0.468 1.946 1.062 2.875 1.664 1.231 0.804 1.713 1.938 1.785 3.453 0.762 16.093-10.527 30.469-24.072 35.625-5.653 2.151-11.369 3.217-17.468 3.202-48.146-0.114-185.25 0.082-205.65 1e-3 -8.969-0.035-17.367-2.2-24.789-7.597-5.179-3.765-8.879-8.662-11.835-14.23-1.937-3.65-3.19-7.561-3.847-11.596-0.475-2.924-0.484-5.941-0.487-8.92-0.027-43.901 1e-3 -192.7-0.039-223.19-7e-3 -5.137 0.085-10.199 1.838-15.141 4.859-13.699 13.78-22.936 28.265-26.201 0.416-0.094 0.859-0.137 1.239-0.312 3.719-1.706 7.673-1.331 11.581-1.332 41.233-6e-3 173.55-0.023 198.48-0.144 6.256-0.03 12.416 0.156 18.512 1.838 10.247 2.826 17.913 8.984 23.441 17.87 1.638 2.633 2.651 5.616 3.651 8.634 1.581 4.775 0.587 9.473 1.077 14.225h-0.01z"/>
		<path d="m311.83 278.85c0.129-1.465 0.297-2.641 0.323-3.817 0.048-2.222 0.027-4.441 0.011-6.662-0.023-2.993 0.142-5.929 0.924-8.872 0.854-3.197 1.147-6.539 1.844-9.783 0.695-3.23 1.305-6.525 2.453-9.603 2.147-5.743 4.208-11.549 7.573-16.763 1.287-1.992 2.264-4.187 3.511-6.207 4.369-7.08 9.681-13.425 15.344-19.486 0.66-0.706 1.267-1.461 2.261-2.615-1.364-0.104-2.09-0.205-2.816-0.206-13.146-7e-3 -26.293 0-39.438-1e-3 -0.938 0-1.886 0.031-2.814-0.064-2.48-0.256-4.264-2.211-4.271-4.611-6e-3 -2.371 1.804-4.221 4.368-4.412 0.937-0.07 1.877-0.051 2.816-0.051 16.562-2e-3 33.124-0.031 49.686 0.03 2.425 9e-3 4.406-0.542 6.333-2.12 2.163-1.773 4.614-3.224 7.048-4.631 3.616-2.096 7.25-4.194 11.021-5.985 3.529-1.676 7.233-2.993 10.889-4.391 1.979-0.756 3.996-1.431 6.035-1.999 3.358-0.937 6.712-1.954 10.136-2.572 3.854-0.695 7.78-0.998 11.679-1.447 1.355-0.156 2.72-0.281 4.082-0.355 3.668-0.199 7.293-0.191 10.938 0.639 3.646 0.831 7.436 1.029 11.095 1.809 2.89 0.615 5.729 1.554 8.492 2.608 2.265 0.862 3.301 3.277 2.645 5.483-0.473 1.582-1.381 2.675-3.217 2.82-1.987 0.159-3.813-0.057-5.731-0.797-2.195-0.847-4.589-1.254-6.935-1.617-4.378-0.676-8.771-1.273-13.179-1.73-3.234-0.336-6.477-0.108-9.666 0.645-0.822 0.194-1.691 0.301-2.536 0.277-4.229-0.114-8.316 0.996-12.287 2.046-12.027 3.177-23.092 8.569-33.381 15.606-14.297 9.777-25.396 22.441-34.107 37.303-0.861 1.469-1.658 2.996-2.282 4.576-2.099 5.311-4.389 10.57-6.056 16.017-1.289 4.207-1.903 8.646-2.541 13.021-0.555 3.793-0.778 7.637-1.029 11.467-0.083 1.263 0.12 2.563 0.349 3.814 0.308 1.691 1.038 2.398 2.722 2.555 1.439 0.135 2.905 0.143 4.349 0.041 1.432-0.101 2.354-1.256 2.075-2.641-1.163-5.839-0.189-11.575 0.86-17.279 0.611-3.342 1.645-6.604 2.463-9.91 2.371-9.553 7.037-18.082 12.399-26.152 4.732-7.12 10.751-13.268 17.246-18.852 6.955-5.979 14.685-10.767 22.896-14.89 6.869-3.449 14.133-5.579 21.526-7.167 7.778-1.671 15.694-1.761 23.675-0.786 10.686 1.304 20.278 5.188 29.072 11.188 2.448 1.67 4.682 3.725 6.771 5.841 5.766 5.833 10.305 12.587 13.237 20.218 1.571 4.095 2.183 8.572 3.099 12.904 1.804 8.525 0.863 16.942-0.858 25.39-1.389 6.817-4.143 13.046-6.885 19.368-4.429 10.215-10.938 18.932-18.705 26.669-8.005 7.978-16.937 14.769-27.325 19.597-5.433 2.521-10.926 4.818-16.63 6.504-3.804 1.125-7.844 1.476-11.79 2.099-2.104 0.333-4.226 0.655-6.348 0.733-6.161 0.229-12.272-0.201-18.27-1.791-1.885-0.5-3.816-0.823-5.702-1.328-4.83-1.295-9.098-3.858-13.437-6.211-5.25-2.846-9.391-7.053-13.337-11.463-5.38-6.017-9.139-12.914-11.438-20.634-0.19-0.645-0.432-1.274-0.688-2.03h-8.276c-0.354 1.916-0.332 3.703 0.771 5.388 0.273 0.42 0.458 0.917 0.609 1.399 5.175 16.379 15.753 28.188 30.515 36.623 6.239 3.566 13.021 5.491 19.806 7.484 1.77 0.518 3.715 0.411 5.575 0.624 4.653 0.534 9.268 1.669 13.996 1.131 2.532-0.289 5.03-0.909 7.563-1.153 11.271-1.094 21.775-4.668 31.817-9.729 17.772-8.96 31.912-21.984 42.981-38.471 6.298-9.377 10.839-19.525 13.479-30.484 2.463-10.211 3.204-20.603 1.739-31.02-0.585-4.162-1.579-8.291-3.241-12.283-1.104-2.658-2.225-5.318-3.354-7.975-1.996-4.69-4.783-8.844-7.883-12.834-1.356-1.748-1.402-3.416-0.263-5.194 1.059-1.651 3.021-2.579 4.866-1.954 1.071 0.361 2.198 1.074 2.892 1.952 3.708 4.696 7.152 9.576 9.354 15.211 1.118 2.861 2.457 5.655 3.329 8.589 1.064 3.582 1.76 7.275 2.587 10.927 0.188 0.827 0.103 1.745 0.411 2.514 1.05 2.617 0.964 5.345 0.973 8.068 0.012 3.331 0.109 6.667-0.037 9.993-0.09 2.024-0.562 4.034-0.877 6.048-0.133 0.839-0.317 1.668-0.458 2.505-0.28 1.678-0.534 3.355-0.825 5.031-0.246 1.424-0.462 2.859-0.813 4.26-0.493 1.958-0.937 3.955-1.688 5.816-1.98 4.896-3.965 9.801-6.229 14.565-6.24 13.126-15.029 24.363-25.682 34.203-7.957 7.354-17.018 13.052-26.415 18.356-7.229 4.08-15.027 6.477-22.878 8.748-4.4 1.271-9.025 1.783-13.563 2.58-6.187 1.088-12.496 1.138-18.624 0.383-6.777-0.838-13.713-1.469-20.104-4.426-2.534-1.176-5.407-1.64-7.898-2.883-3.809-1.898-7.508-4.05-11.084-6.354-7.854-5.06-14.336-11.623-19.614-19.271-2.692-3.902-5.021-8.064-6.854-12.541-1.627-3.97-3.018-7.951-4.028-12.1-0.22-0.905-0.677-1.751-0.939-2.646-0.347-1.188-1.094-1.539-2.291-1.525-4.692 0.052-9.39 0.074-14.083-0.016-1.33-0.024-2.744-0.246-3.959-0.759-2.106-0.887-2.752-2.5-2.313-4.847 0.366-1.954 1.802-3.208 3.991-3.237 4.522-0.063 9.05-0.026 13.572-0.032 0.841-1e-3 1.689-1e-3 2.9-1e-3zm162.5-28.071c0.546-3.938 1.809-7.623 1.35-11.521-0.396-3.384-0.821-6.765-1.26-10.144-0.063-0.504-0.223-1.002-0.377-1.488-0.564-1.781-1.104-3.571-1.732-5.329-0.543-1.521-1.047-3.085-1.826-4.485-1.495-2.68-3.064-5.333-4.802-7.863-5.235-7.631-12.473-12.785-20.95-16.182-3.452-1.383-7.109-2.289-10.724-3.227-2.567-0.666-5.201-0.33-7.682-0.135-0.55 2.041-0.899 3.806-1.512 5.475-0.57 1.555-2.938 2.809-4.355 2.553-2.284-0.41-3.285-1.385-3.49-3.674-0.126-1.406-0.021-2.834-0.021-4.462-1.521 0-2.746-0.215-3.867 0.037-5.149 1.155-10.471 1.921-15.359 3.796-9.005 3.453-17.454 7.965-25.109 14.083-11.644 9.3-20.73 20.429-26.812 34.019-0.87 1.945-1.678 3.922-2.418 5.92-0.282 0.762-0.294 1.623-0.445 2.527 0.895 0.348 1.594 0.638 2.306 0.891 0.724 0.258 1.476 0.438 2.186 0.724 2.043 0.821 3.003 3.55 2.016 5.456-1.281 2.468-3.588 2.938-6.013 3.188-0.984 0.104-1.98 0.113-3.101 0.174-0.371 6.063-1.868 11.873 0.426 17.779h3.435c5.635 6e-3 11.268 0.021 16.898 6e-3 1.534-6e-3 2.847 0.291 3.729 1.729 1.405 2.301 0.74 5.12-1.742 6.306-1.03 0.491-2.292 0.67-3.453 0.688-5.035 0.083-10.071 0.033-15.107 0.091-0.841 9e-3 -1.679 0.297-2.561 0.464 8.535 25.396 32.996 35.585 49.646 33.563 0.228-0.664 0.478-1.383 0.718-2.104 0.27-0.809 0.51-1.63 0.8-2.431 0.902-2.489 2.854-3.729 5.063-3.242 2.651 0.585 4.057 2.699 3.678 5.53-0.075 0.568-0.131 1.141-0.233 2.063 0.994 0 1.824 0.118 2.609-0.019 6.933-1.203 13.606-3.398 19.93-6.358 10.11-4.729 19.234-11 27.04-19.103 5.533-5.745 10.563-11.859 14.277-18.945 1.861-3.549 3.438-7.245 5.142-10.878 0.289-0.618 0.605-1.229 0.813-1.878 0.722-2.266 0.302-3.081-1.929-3.857-0.645-0.226-1.311-0.386-1.954-0.607-1.254-0.436-2.707-2.694-2.599-4.005 0.141-1.699 1.569-3.478 3.1-3.809 2.058-0.448 4.134-0.869 6.271-1.316z"/>
		<path d="m152.9 150.39c-0.598 25.467-0.703 50.48-0.443 75.498 2e-3 0.276 0.294 0.551 0.563 1.021 0.638-0.67 1.171-1.189 1.658-1.748 9.022-10.373 18.039-20.753 27.063-31.125 0.784-0.9 1.568-1.812 2.434-2.631 3.458-3.273 8.06-3.584 11.914-0.748 1.088 0.801 2.063 1.793 2.959 2.813 5.294 6.034 55.913 63.512 60.097 67.893 2.295 2.402 3.406 4.962 3.033 8.273-0.227 2.029-0.135 4.096-0.238 6.141-0.035 0.707-0.229 1.404-0.444 2.666-1.058-1.053-1.729-1.658-2.332-2.332-6.368-7.133-60.189-68.152-65.447-74.101-0.999-1.131-2.107-2.164-3.281-3.359-0.731 0.807-1.303 1.417-1.853 2.046-6.793 7.784-13.59 15.563-20.371 23.357-4.763 5.476-9.492 10.981-14.257 16.456-1.003 1.152-1.53 2.439-1.501 3.965 0.012 0.598-0.022 1.195-0.022 1.794-1e-3 24.171-5e-3 48.346 8e-3 72.52 1e-3 1.423 0.138 2.847 0.224 4.517h109.08c0 2.801 0.063 5.346-0.054 7.881-0.021 0.521-0.61 1.271-1.108 1.461-0.931 0.354-1.985 0.51-2.988 0.51-34.66 0.011-69.32 7e-3 -103.98-0.034-7.356-0.011-11.537-4.47-11.305-11.841 0.046-1.451 0.083-2.902 0.084-4.354 4e-3 -33.738-0.068-143.07-0.082-164-1e-3 -1.359 0.064-2.741 0.309-4.074 0.801-4.357 3.909-7.283 8.292-7.809 1.941-0.232 3.906-0.379 5.861-0.379 47.807-0.021 169.37 0.011 182.35 0.123 2.717 0.023 5.448 0.367 8.14 0.777 3.156 0.482 6.237 3.912 6.39 7.16 0.151 3.317 0.032 6.648 0.032 9.928-2.646 1.974-5.608 2.686-8.746 3.686-1.02-3.889-0.057-7.688-0.738-11.633-1.653-0.108-3.243-0.303-4.832-0.305-28.087-0.019-149.99-0.014-182.86-0.014-1.093-1e-3 -2.183-1e-3 -3.598-1e-3l-0.011 3e-3z"/>
		<path d="m52.489 278.93c12.72 0 25.439-4e-3 38.159 8e-3 0.934 2e-3 1.897-0.017 2.796 0.191 1.937 0.45 3.235 2.191 3.05 3.877-0.21 1.915-1.461 3.098-3.59 3.303-1.017 0.1-2.045 0.11-3.068 0.11-24.671 6e-3 -49.341 8e-3 -74.012-5e-3 -1.104 0-2.231-0.023-3.308-0.234-2.08-0.41-3.3-1.924-3.173-3.718 0.138-1.948 1.621-3.369 3.709-3.509 0.765-0.053 1.535-0.023 2.304-0.023h37.133z"/>
		<path d="m28.562 191.83c-0.936-2e-3 -1.893 0.029-2.802-0.148-1.947-0.379-3.239-2.045-3.092-3.806 0.157-1.893 1.472-3.229 3.458-3.466 0.675-0.08 1.361-0.086 2.042-0.086 20.809-6e-3 41.617-8e-3 62.426 6e-3 1.017 1e-3 2.066 0.029 3.044 0.271 1.833 0.453 3.114 2.355 2.845 4.022-0.229 1.413-1.643 3.243-3.705 3.228-10.403-0.085-53.812-0.012-64.216-0.021z"/>
		<path d="m275.14 233.43c-1.459 3e-3 -2.637-0.435-3.472-1.735-1.742-2.718-0.208-6.253 3.185-7.12 0.814-0.208 1.688-0.254 2.535-0.256 8.952-0.018 17.904 8e-3 26.856-0.025 2.071-7e-3 3.83 0.559 5.31 2.058 1.235 1.251 1.47 2.673 0.88 4.229-0.572 1.513-1.532 2.67-3.323 2.766-1.276 0.068-2.555 0.168-3.83 0.176-4.266 0.02-23.026-0.105-28.141-0.093z"/>
		<path d="m91.894 224.13c1.376-0.014 2.458 0.387 3.439 1.341 1.032 1.002 1.347 2.175 0.998 3.492-0.379 1.425-1.362 2.354-2.818 2.657-0.658 0.137-1.356 0.11-2.035 0.111-9.795 6e-3 -19.59 0.02-29.384-0.02-1.082-4e-3 -2.229-0.15-3.229-0.533-1.673-0.642-2.453-2.056-2.284-3.593 0.171-1.568 1.216-2.792 2.887-3.178 0.817-0.188 1.686-0.198 2.532-0.201 4.855-0.016 24.785-0.023 29.894-0.076z"/>
		<path d="m310.4 319.94c1.633-8e-3 2.999 0.451 3.933 1.906 1.895 2.947 0.359 6.393-3.245 7.188-0.492 0.109-1.016 0.117-1.523 0.117-7.072 0-14.146-0.039-21.222 2e-3 -2.163 0.013-3.795-0.846-4.979-2.577-1.716-2.503-0.652-5.461 2.276-6.244 1.055-0.281 2.187-0.368 3.284-0.383 3.494-0.046 17.811 7e-3 21.476-9e-3z"/>
		<path d="m85.471 321.86c2.379 0 4.758-2e-3 7.137 0 0.254 0 0.511 2e-3 0.764 0.031 1.761 0.213 3.081 1.402 3.13 2.814 0.047 1.352-1.268 2.676-3.013 2.945-0.666 0.104-1.355 0.074-2.034 0.074-4.08 6e-3 -8.159 4e-3 -12.238 4e-3 -0.425 0-0.851 0.013-1.275-8e-3 -2.168-0.104-3.46-1.162-3.528-2.881-0.066-1.684 1.258-2.906 3.413-2.967 2.546-0.062 5.096-0.01 7.644-0.012z"/>
		<path d="m275.33 287.67c-2.316-0.016-4.665-2.513-4.602-4.896 0.063-2.398 1.81-4.055 4.312-4.082 2.622-0.029 4.883 1.983 4.787 4.265-0.104 2.449-2.277 4.729-4.497 4.713z"/>
		<path d="m467.91 176.74c2.634 0.051 4.889 2.062 4.713 4.201-0.163 1.972-2.951 4.658-4.786 4.609-1.885-0.05-4.428-2.728-4.422-4.656 7e-3 -2.273 2.094-4.2 4.495-4.154z"/>
		<path d="m389.66 275.92c-1.207-0.663-2.147-1.089-2.989-1.66-2.403-1.631-2.738-3.863-0.851-6.058 0.883-1.026 1.925-1.933 2.972-2.798 4.071-3.375 8.146-6.739 12.272-10.044 1.689-1.355 2.521-2.96 2.855-5.157 0.585-3.851 7.636-34.501 8.322-37.04 0.271-0.996 0.979-2.012 1.767-2.7 1.357-1.187 3.199-1.067 4.733 3e-3 2.137 1.491 2.855 3.211 2.366 5.175-0.824 3.295-7.375 32.919-8.451 38.603-0.5 2.645-1.571 4.756-3.692 6.473-4.638 3.756-9.132 7.688-13.767 11.446-1.704 1.384-3.64 2.483-5.537 3.757z"/>
	</g>
</svg>
